<?xml version="1.0" encoding="UTF-8" standalone="no"?>
<!DOCTYPE svg PUBLIC "-//W3C//DTD SVG 1.1//EN"
 "http://www.w3.org/Graphics/SVG/1.1/DTD/svg11.dtd">
<!-- Generated by graphviz version 2.38.0 (20140413.2041)
 -->
<!-- Title: g Pages: 1 -->
<svg width="199pt" height="91pt"
 viewBox="0.00 0.00 198.64 91.40" xmlns="http://www.w3.org/2000/svg" xmlns:xlink="http://www.w3.org/1999/xlink">
<g id="graph0" class="graph" transform="scale(1 1) rotate(0) translate(4 87.4)">
<title>g</title>
<polygon fill="white" stroke="none" points="-4,4 -4,-87.4 194.643,-87.4 194.643,4 -4,4"/>
<!-- driver.py -->
<g id="node1" class="node"><title>driver.py</title>
<polygon fill="none" stroke="black" points="0,-0.5 0,-54.9 77.3216,-54.9 77.3216,-0.5 0,-0.5"/>
<text text-anchor="middle" x="38.6608" y="-36.5" font-family="Times,serif" font-size="16.00">driver.py</text>
<polyline fill="none" stroke="black" points="0,-27.7 77.3216,-27.7 "/>
<text text-anchor="middle" x="38.6608" y="-9.3" font-family="Times,serif" font-size="16.00">function1</text>
</g>
<!-- file1.py -->
<g id="node2" class="node"><title>file1.py</title>
<polygon fill="none" stroke="black" points="113.322,-28.5 113.322,-82.9 190.643,-82.9 190.643,-28.5 113.322,-28.5"/>
<text text-anchor="middle" x="151.982" y="-64.5" font-family="Times,serif" font-size="16.00">file1.py</text>
<polyline fill="none" stroke="black" points="113.322,-55.7 190.643,-55.7 "/>
<text text-anchor="middle" x="151.982" y="-37.3" font-family="Times,serif" font-size="16.00">function1</text>
</g>
<!-- driver.py&#45;&gt;file1.py -->
<g id="edge1" class="edge"><title>driver.py:f0&#45;&gt;file1.py:f1</title>
<path fill="none" stroke="black" d="M77.3216,-41.7C89.3216,-41.7 94.5716,-41.7 103.197,-41.7"/>
<polygon fill="black" stroke="black" points="103.322,-45.2001 113.322,-41.7 103.322,-38.2001 103.322,-45.2001"/>
</g>
</g>
</svg>
