<?xml version="1.0" encoding="UTF-8" standalone="no"?>
<!DOCTYPE svg PUBLIC "-//W3C//DTD SVG 1.1//EN"
 "http://www.w3.org/Graphics/SVG/1.1/DTD/svg11.dtd">
<!-- Generated by graphviz version 2.38.0 (20140413.2041)
 -->
<!-- Title: g Pages: 1 -->
<svg width="339pt" height="1308pt"
 viewBox="0.00 0.00 339.48 1308.40" xmlns="http://www.w3.org/2000/svg" xmlns:xlink="http://www.w3.org/1999/xlink">
<g id="graph0" class="graph" transform="scale(1 1) rotate(0) translate(4 1304.4)">
<title>g</title>
<polygon fill="white" stroke="none" points="-4,4 -4,-1304.4 335.48,-1304.4 335.48,4 -4,4"/>
<!-- driver.py -->
<g id="node1" class="node"><title>driver.py</title>
<polygon fill="none" stroke="black" points="-7.10543e-15,-1136.5 -7.10543e-15,-1190.9 74.2016,-1190.9 74.2016,-1136.5 -7.10543e-15,-1136.5"/>
<text text-anchor="middle" x="37.1008" y="-1172.5" font-family="Times,serif" font-size="16.00">driver.py</text>
<polyline fill="none" stroke="black" points="-7.10543e-15,-1163.7 74.2016,-1163.7 "/>
<text text-anchor="middle" x="37.1008" y="-1145.3" font-family="Times,serif" font-size="16.00">main</text>
</g>
<!-- utils.py -->
<g id="node2" class="node"><title>utils.py</title>
<polygon fill="none" stroke="black" points="127.551,-1109.5 127.551,-1299.9 314.13,-1299.9 314.13,-1109.5 127.551,-1109.5"/>
<text text-anchor="middle" x="220.841" y="-1281.5" font-family="Times,serif" font-size="16.00">utils.py</text>
<polyline fill="none" stroke="black" points="127.551,-1272.7 314.13,-1272.7 "/>
<text text-anchor="middle" x="220.841" y="-1254.3" font-family="Times,serif" font-size="16.00">create_notation_dataframe</text>
<polyline fill="none" stroke="black" points="127.551,-1245.5 314.13,-1245.5 "/>
<text text-anchor="middle" x="220.841" y="-1227.1" font-family="Times,serif" font-size="16.00">create_activity_dataframe</text>
<polyline fill="none" stroke="black" points="127.551,-1218.3 314.13,-1218.3 "/>
<text text-anchor="middle" x="220.841" y="-1199.9" font-family="Times,serif" font-size="16.00">change_nan_infinite</text>
<polyline fill="none" stroke="black" points="127.551,-1191.1 314.13,-1191.1 "/>
<text text-anchor="middle" x="220.841" y="-1172.7" font-family="Times,serif" font-size="16.00">choose_features</text>
<polyline fill="none" stroke="black" points="127.551,-1163.9 314.13,-1163.9 "/>
<text text-anchor="middle" x="220.841" y="-1145.5" font-family="Times,serif" font-size="16.00">upload_to_s3</text>
<polyline fill="none" stroke="black" points="127.551,-1136.7 314.13,-1136.7 "/>
<text text-anchor="middle" x="220.841" y="-1118.3" font-family="Times,serif" font-size="16.00">plot_features</text>
</g>
<!-- driver.py&#45;&gt;utils.py -->
<g id="edge1" class="edge"><title>driver.py:f1&#45;&gt;utils.py:f1</title>
<path fill="none" stroke="black" d="M74.2016,-1149.7C124.007,-1149.7 80.6016,-1243.12 116.571,-1256.99"/>
<polygon fill="black" stroke="black" points="116.401,-1260.51 126.841,-1258.7 117.552,-1253.6 116.401,-1260.51"/>
</g>
<!-- driver.py&#45;&gt;utils.py -->
<g id="edge2" class="edge"><title>driver.py:f1&#45;&gt;utils.py:f2</title>
<path fill="none" stroke="black" d="M74.2016,-1149.7C113.618,-1149.7 89.0146,-1217.63 116.927,-1229.83"/>
<polygon fill="black" stroke="black" points="116.366,-1233.29 126.841,-1231.7 117.661,-1226.41 116.366,-1233.29"/>
</g>
<!-- driver.py&#45;&gt;utils.py -->
<g id="edge21" class="edge"><title>driver.py:f1&#45;&gt;utils.py:f3</title>
<path fill="none" stroke="black" d="M74.2016,-1149.7C104.469,-1141.65 95.6323,-1184.81 117.651,-1200.45"/>
<polygon fill="black" stroke="black" points="116.296,-1203.68 126.841,-1204.7 119.236,-1197.32 116.296,-1203.68"/>
</g>
<!-- driver.py&#45;&gt;utils.py -->
<g id="edge22" class="edge"><title>driver.py:f1&#45;&gt;utils.py:f3</title>
<path fill="none" stroke="black" d="M74.5959,-1149.81C103.771,-1157.97 96.073,-1200.78 116.319,-1205.3"/>
<polygon fill="black" stroke="black" points="116.634,-1208.79 126.448,-1204.8 116.287,-1201.8 116.634,-1208.79"/>
</g>
<!-- driver.py&#45;&gt;utils.py -->
<g id="edge23" class="edge"><title>driver.py:f1&#45;&gt;utils.py:f4</title>
<path fill="none" stroke="black" d="M74.2016,-1149.7C96.7672,-1149.7 99.8565,-1170 116.64,-1176.03"/>
<polygon fill="black" stroke="black" points="116.407,-1179.54 126.841,-1177.7 117.537,-1172.63 116.407,-1179.54"/>
</g>
<!-- driver.py&#45;&gt;utils.py -->
<g id="edge24" class="edge"><title>driver.py:f1&#45;&gt;utils.py:f6</title>
<path fill="none" stroke="black" d="M74.2016,-1149.7C96.592,-1149.7 99.9537,-1130.12 116.695,-1124.31"/>
<polygon fill="black" stroke="black" points="117.512,-1127.72 126.841,-1122.7 116.416,-1120.81 117.512,-1127.72"/>
</g>
<!-- descriptors.py -->
<g id="node3" class="node"><title>descriptors.py</title>
<polygon fill="none" stroke="black" points="110.202,-573.3 110.202,-1090.1 331.48,-1090.1 331.48,-573.3 110.202,-573.3"/>
<text text-anchor="middle" x="220.841" y="-1071.7" font-family="Times,serif" font-size="16.00">descriptors.py</text>
<polyline fill="none" stroke="black" points="110.202,-1062.9 331.48,-1062.9 "/>
<text text-anchor="middle" x="220.841" y="-1044.5" font-family="Times,serif" font-size="16.00">extract_all_descriptors</text>
<polyline fill="none" stroke="black" points="110.202,-1035.7 331.48,-1035.7 "/>
<text text-anchor="middle" x="220.841" y="-1017.3" font-family="Times,serif" font-size="16.00">extract_constitution_descriptors</text>
<polyline fill="none" stroke="black" points="110.202,-1008.5 331.48,-1008.5 "/>
<text text-anchor="middle" x="220.841" y="-990.1" font-family="Times,serif" font-size="16.00">extract_topology_descriptors</text>
<polyline fill="none" stroke="black" points="110.202,-981.3 331.48,-981.3 "/>
<text text-anchor="middle" x="220.841" y="-962.9" font-family="Times,serif" font-size="16.00">extract_con_descriptors</text>
<polyline fill="none" stroke="black" points="110.202,-954.1 331.48,-954.1 "/>
<text text-anchor="middle" x="220.841" y="-935.7" font-family="Times,serif" font-size="16.00">extract_kappa_descriptors</text>
<polyline fill="none" stroke="black" points="110.202,-926.9 331.48,-926.9 "/>
<text text-anchor="middle" x="220.841" y="-908.5" font-family="Times,serif" font-size="16.00">extract_burden_descriptors</text>
<polyline fill="none" stroke="black" points="110.202,-899.7 331.48,-899.7 "/>
<text text-anchor="middle" x="220.841" y="-881.3" font-family="Times,serif" font-size="16.00">extract_estate_descriptors</text>
<polyline fill="none" stroke="black" points="110.202,-872.5 331.48,-872.5 "/>
<text text-anchor="middle" x="220.841" y="-854.1" font-family="Times,serif" font-size="16.00">extract_basak_descriptors</text>
<polyline fill="none" stroke="black" points="110.202,-845.3 331.48,-845.3 "/>
<text text-anchor="middle" x="220.841" y="-826.9" font-family="Times,serif" font-size="16.00">extract_moran_descriptors</text>
<polyline fill="none" stroke="black" points="110.202,-818.1 331.48,-818.1 "/>
<text text-anchor="middle" x="220.841" y="-799.7" font-family="Times,serif" font-size="16.00">extract_geary_descriptors</text>
<polyline fill="none" stroke="black" points="110.202,-790.9 331.48,-790.9 "/>
<text text-anchor="middle" x="220.841" y="-772.5" font-family="Times,serif" font-size="16.00">extract_property_descriptors</text>
<polyline fill="none" stroke="black" points="110.202,-763.7 331.48,-763.7 "/>
<text text-anchor="middle" x="220.841" y="-745.3" font-family="Times,serif" font-size="16.00">extract_charge_descriptors</text>
<polyline fill="none" stroke="black" points="110.202,-736.5 331.48,-736.5 "/>
<text text-anchor="middle" x="220.841" y="-718.1" font-family="Times,serif" font-size="16.00">extract_moe_descriptors</text>
<polyline fill="none" stroke="black" points="110.202,-709.3 331.48,-709.3 "/>
<text text-anchor="middle" x="220.841" y="-690.9" font-family="Times,serif" font-size="16.00">extract_geometric_descriptors</text>
<polyline fill="none" stroke="black" points="110.202,-682.1 331.48,-682.1 "/>
<text text-anchor="middle" x="220.841" y="-663.7" font-family="Times,serif" font-size="16.00">extract_cpsa_descriptors</text>
<polyline fill="none" stroke="black" points="110.202,-654.9 331.48,-654.9 "/>
<text text-anchor="middle" x="220.841" y="-636.5" font-family="Times,serif" font-size="16.00">extract_rdf_descriptors</text>
<polyline fill="none" stroke="black" points="110.202,-627.7 331.48,-627.7 "/>
<text text-anchor="middle" x="220.841" y="-609.3" font-family="Times,serif" font-size="16.00">extract_morse_descriptors</text>
<polyline fill="none" stroke="black" points="110.202,-600.5 331.48,-600.5 "/>
<text text-anchor="middle" x="220.841" y="-582.1" font-family="Times,serif" font-size="16.00">extract_whim_descriptors</text>
</g>
<!-- driver.py&#45;&gt;descriptors.py -->
<g id="edge3" class="edge"><title>driver.py:f1&#45;&gt;descriptors.py:f1</title>
<path fill="none" stroke="black" d="M74.2016,-1149.7C117.379,-1149.7 72.2343,-1066.15 100.231,-1051.79"/>
<polygon fill="black" stroke="black" points="101.132,-1055.18 110.202,-1049.7 99.6964,-1048.32 101.132,-1055.18"/>
</g>
<!-- models.py -->
<g id="node4" class="node"><title>models.py</title>
<polygon fill="none" stroke="black" points="155.08,-282.7 155.08,-554.7 286.602,-554.7 286.602,-282.7 155.08,-282.7"/>
<text text-anchor="middle" x="220.841" y="-536.3" font-family="Times,serif" font-size="16.00">models.py</text>
<polyline fill="none" stroke="black" points="155.08,-527.5 286.602,-527.5 "/>
<text text-anchor="middle" x="220.841" y="-509.1" font-family="Times,serif" font-size="16.00">run_models</text>
<polyline fill="none" stroke="black" points="155.08,-500.3 286.602,-500.3 "/>
<text text-anchor="middle" x="220.841" y="-481.9" font-family="Times,serif" font-size="16.00">build_linear</text>
<polyline fill="none" stroke="black" points="155.08,-473.1 286.602,-473.1 "/>
<text text-anchor="middle" x="220.841" y="-454.7" font-family="Times,serif" font-size="16.00">build_nn</text>
<polyline fill="none" stroke="black" points="155.08,-445.9 286.602,-445.9 "/>
<text text-anchor="middle" x="220.841" y="-427.5" font-family="Times,serif" font-size="16.00">build_svm</text>
<polyline fill="none" stroke="black" points="155.08,-418.7 286.602,-418.7 "/>
<text text-anchor="middle" x="220.841" y="-400.3" font-family="Times,serif" font-size="16.00">build_tree</text>
<polyline fill="none" stroke="black" points="155.08,-391.5 286.602,-391.5 "/>
<text text-anchor="middle" x="220.841" y="-373.1" font-family="Times,serif" font-size="16.00">build_ridge</text>
<polyline fill="none" stroke="black" points="155.08,-364.3 286.602,-364.3 "/>
<text text-anchor="middle" x="220.841" y="-345.9" font-family="Times,serif" font-size="16.00">build_bayesian_rr</text>
<polyline fill="none" stroke="black" points="155.08,-337.1 286.602,-337.1 "/>
<text text-anchor="middle" x="220.841" y="-318.7" font-family="Times,serif" font-size="16.00">build_lasso</text>
<polyline fill="none" stroke="black" points="155.08,-309.9 286.602,-309.9 "/>
<text text-anchor="middle" x="220.841" y="-291.5" font-family="Times,serif" font-size="16.00">build_forest</text>
</g>
<!-- driver.py&#45;&gt;models.py -->
<g id="edge25" class="edge"><title>driver.py:f1&#45;&gt;models.py:f1</title>
<path fill="none" stroke="black" d="M37.1008,-1135.7C37.1008,-1007.56 57.6753,-680.585 110.202,-563.7 120.733,-540.264 123.649,-519.718 143.722,-514.81"/>
<polygon fill="black" stroke="black" points="144.282,-518.27 153.841,-513.7 143.519,-511.311 144.282,-518.27"/>
</g>
<!-- post_process.py -->
<g id="node5" class="node"><title>post_process.py</title>
<polygon fill="none" stroke="black" points="161.518,-209.5 161.518,-263.9 280.163,-263.9 280.163,-209.5 161.518,-209.5"/>
<text text-anchor="middle" x="220.841" y="-245.5" font-family="Times,serif" font-size="16.00">post_process.py</text>
<polyline fill="none" stroke="black" points="161.518,-236.7 280.163,-236.7 "/>
<text text-anchor="middle" x="220.841" y="-218.3" font-family="Times,serif" font-size="16.00">results</text>
</g>
<!-- driver.py&#45;&gt;post_process.py -->
<g id="edge34" class="edge"><title>driver.py:f1&#45;&gt;post_process.py:f1</title>
<path fill="none" stroke="black" d="M37.1008,-1135.7C37.1008,-1039.58 69.8498,-360.942 110.202,-273.7 122.04,-248.106 127.548,-227.954 150.653,-223.583"/>
<polygon fill="black" stroke="black" points="151.18,-227.05 160.841,-222.7 150.576,-220.076 151.18,-227.05"/>
</g>
<!-- genalgo.py -->
<g id="node6" class="node"><title>genalgo.py</title>
<polygon fill="none" stroke="black" points="165.086,-0.5 165.086,-190.9 276.595,-190.9 276.595,-0.5 165.086,-0.5"/>
<text text-anchor="middle" x="220.841" y="-172.5" font-family="Times,serif" font-size="16.00">genalgo.py</text>
<polyline fill="none" stroke="black" points="165.086,-163.7 276.595,-163.7 "/>
<text text-anchor="middle" x="220.841" y="-145.3" font-family="Times,serif" font-size="16.00">main</text>
<polyline fill="none" stroke="black" points="165.086,-136.5 276.595,-136.5 "/>
<text text-anchor="middle" x="220.841" y="-118.1" font-family="Times,serif" font-size="16.00">population</text>
<polyline fill="none" stroke="black" points="165.086,-109.3 276.595,-109.3 "/>
<text text-anchor="middle" x="220.841" y="-90.9" font-family="Times,serif" font-size="16.00">individual</text>
<polyline fill="none" stroke="black" points="165.086,-82.1 276.595,-82.1 "/>
<text text-anchor="middle" x="220.841" y="-63.7" font-family="Times,serif" font-size="16.00">evolve</text>
<polyline fill="none" stroke="black" points="165.086,-54.9 276.595,-54.9 "/>
<text text-anchor="middle" x="220.841" y="-36.5" font-family="Times,serif" font-size="16.00">fitness</text>
<polyline fill="none" stroke="black" points="165.086,-27.7 276.595,-27.7 "/>
<text text-anchor="middle" x="220.841" y="-9.3" font-family="Times,serif" font-size="16.00">grade (unused)</text>
</g>
<!-- driver.py&#45;&gt;genalgo.py -->
<g id="edge35" class="edge"><title>driver.py:f1&#45;&gt;genalgo.py:f1</title>
<path fill="none" stroke="black" d="M37.1008,-1135.7C37.1008,-1031.38 64.9008,-293.667 110.202,-199.7 122.751,-173.668 129.595,-154.489 153.706,-150.477"/>
<polygon fill="black" stroke="black" points="154.138,-153.955 163.841,-149.7 153.602,-146.975 154.138,-153.955"/>
</g>
<!-- descriptors.py&#45;&gt;descriptors.py -->
<g id="edge4" class="edge"><title>descriptors.py:f1&#45;&gt;descriptors.py:f2</title>
<path fill="none" stroke="black" d="M110.146,-1055.16C61.293,-1054.24 19.2016,-1048.57 19.2016,-1035.7 19.2016,-1023.73 55.582,-1017.99 99.9537,-1016.51"/>
<polygon fill="black" stroke="black" points="100.241,-1020 110.146,-1016.24 100.058,-1013 100.241,-1020"/>
</g>
<!-- descriptors.py&#45;&gt;descriptors.py -->
<g id="edge5" class="edge"><title>descriptors.py:f1&#45;&gt;descriptors.py:f3</title>
<path fill="none" stroke="gray" d="M110.146,-1054C61.293,-1051.62 19.2016,-1042.62 19.2016,-1022.2 19.2016,-1003.21 55.582,-994.102 99.9537,-990.998"/>
<polygon fill="gray" stroke="gray" points="100.37,-994.48 110.146,-990.395 99.9569,-987.492 100.37,-994.48"/>
</g>
<!-- descriptors.py&#45;&gt;descriptors.py -->
<g id="edge6" class="edge"><title>descriptors.py:f1&#45;&gt;descriptors.py:f4</title>
<path fill="none" stroke="black" d="M110.146,-1052.85C61.293,-1049 19.2016,-1036.68 19.2016,-1008.7 19.2016,-982.689 55.582,-970.209 99.9537,-965.489"/>
<polygon fill="black" stroke="black" points="100.51,-968.953 110.146,-964.549 99.8668,-961.982 100.51,-968.953"/>
</g>
<!-- descriptors.py&#45;&gt;descriptors.py -->
<g id="edge7" class="edge"><title>descriptors.py:f1&#45;&gt;descriptors.py:f5</title>
<path fill="none" stroke="black" d="M110.146,-1051.7C61.293,-1046.38 19.2016,-1030.73 19.2016,-995.2 19.2016,-962.166 55.582,-946.317 99.9537,-939.98"/>
<polygon fill="black" stroke="black" points="100.659,-943.419 110.146,-938.702 99.7883,-936.473 100.659,-943.419"/>
</g>
<!-- descriptors.py&#45;&gt;descriptors.py -->
<g id="edge8" class="edge"><title>descriptors.py:f1&#45;&gt;descriptors.py:f6</title>
<path fill="none" stroke="black" d="M110.146,-1050.54C61.293,-1043.76 19.2016,-1024.79 19.2016,-981.7 19.2016,-941.558 55.735,-922.343 100.233,-914.421"/>
<polygon fill="black" stroke="black" points="100.814,-917.872 110.146,-912.855 99.7225,-910.958 100.814,-917.872"/>
</g>
<!-- descriptors.py&#45;&gt;descriptors.py -->
<g id="edge9" class="edge"><title>descriptors.py:f1&#45;&gt;descriptors.py:f7</title>
<path fill="none" stroke="black" d="M110.146,-1049.35C61.293,-1041.05 19.2016,-1018.62 19.2016,-967.7 19.2016,-920.26 55.735,-897.551 100.233,-887.956"/>
<polygon fill="black" stroke="black" points="100.986,-891.376 110.146,-886.051 99.6652,-884.502 100.986,-891.376"/>
</g>
<!-- descriptors.py&#45;&gt;descriptors.py -->
<g id="edge10" class="edge"><title>descriptors.py:f1&#45;&gt;descriptors.py:f8</title>
<path fill="none" stroke="black" d="M110.146,-1048.2C61.293,-1038.43 19.2016,-1012.68 19.2016,-954.2 19.2016,-899.722 55.735,-873.645 100.233,-862.437"/>
<polygon fill="black" stroke="black" points="101.159,-865.816 110.146,-860.205 99.6214,-858.987 101.159,-865.816"/>
</g>
<!-- descriptors.py&#45;&gt;descriptors.py -->
<g id="edge11" class="edge"><title>descriptors.py:f1&#45;&gt;descriptors.py:f9</title>
<path fill="none" stroke="black" d="M110.146,-1047.04C61.293,-1035.81 19.2016,-1006.73 19.2016,-940.7 19.2016,-879.184 55.735,-849.738 100.233,-836.918"/>
<polygon fill="black" stroke="black" points="101.339,-840.247 110.146,-834.358 99.5886,-833.47 101.339,-840.247"/>
</g>
<!-- descriptors.py&#45;&gt;descriptors.py -->
<g id="edge12" class="edge"><title>descriptors.py:f1&#45;&gt;descriptors.py:f10</title>
<path fill="none" stroke="black" d="M110.146,-1045.89C61.293,-1033.19 19.2016,-1000.78 19.2016,-927.2 19.2016,-858.503 55.8883,-825.694 100.513,-811.308"/>
<polygon fill="black" stroke="black" points="101.518,-814.661 110.146,-808.511 99.5668,-807.938 101.518,-814.661"/>
</g>
<!-- descriptors.py&#45;&gt;descriptors.py -->
<g id="edge13" class="edge"><title>descriptors.py:f1&#45;&gt;descriptors.py:f11</title>
<path fill="none" stroke="black" d="M110.146,-1044.74C61.293,-1030.57 19.2016,-994.838 19.2016,-913.7 19.2016,-837.95 55.8883,-801.773 100.513,-785.779"/>
<polygon fill="black" stroke="black" points="101.707,-789.071 110.146,-782.665 99.5543,-782.41 101.707,-789.071"/>
</g>
<!-- descriptors.py&#45;&gt;descriptors.py -->
<g id="edge14" class="edge"><title>descriptors.py:f1&#45;&gt;descriptors.py:f12</title>
<path fill="none" stroke="black" d="M110.146,-1043.54C61.293,-1027.86 19.2016,-988.672 19.2016,-899.7 19.2016,-816.637 55.8883,-776.966 100.513,-759.304"/>
<polygon fill="black" stroke="black" points="101.907,-762.522 110.146,-755.861 99.5515,-755.931 101.907,-762.522"/>
</g>
<!-- descriptors.py&#45;&gt;descriptors.py -->
<g id="edge15" class="edge"><title>descriptors.py:f1&#45;&gt;descriptors.py:f13</title>
<path fill="none" stroke="black" d="M110.146,-1042.39C61.293,-1025.24 19.2016,-982.726 19.2016,-886.2 19.2016,-795.896 56.042,-752.866 100.794,-733.654"/>
<polygon fill="black" stroke="black" points="102.096,-736.902 110.146,-730.014 99.5575,-730.379 102.096,-736.902"/>
</g>
<!-- descriptors.py&#45;&gt;descriptors.py -->
<g id="edge16" class="edge"><title>descriptors.py:f1&#45;&gt;descriptors.py:f14</title>
<path fill="none" stroke="black" d="M110.146,-1041.23C61.293,-1022.62 19.2016,-976.78 19.2016,-872.7 19.2016,-775.328 56.042,-728.931 100.794,-708.114"/>
<polygon fill="black" stroke="black" points="102.294,-711.28 110.146,-704.168 99.572,-704.831 102.294,-711.28"/>
</g>
<!-- descriptors.py&#45;&gt;descriptors.py -->
<g id="edge17" class="edge"><title>descriptors.py:f1&#45;&gt;descriptors.py:f15</title>
<path fill="none" stroke="black" d="M110.146,-1040.08C61.293,-1020 19.2016,-970.834 19.2016,-859.2 19.2016,-754.761 56.042,-704.996 100.794,-682.575"/>
<polygon fill="black" stroke="black" points="102.492,-685.647 110.146,-678.321 99.5943,-679.275 102.492,-685.647"/>
</g>
<!-- descriptors.py&#45;&gt;descriptors.py -->
<g id="edge18" class="edge"><title>descriptors.py:f1&#45;&gt;descriptors.py:f16</title>
<path fill="none" stroke="black" d="M110.146,-1038.93C61.293,-1017.38 19.2016,-964.888 19.2016,-845.7 19.2016,-733.961 56.196,-680.84 101.074,-656.885"/>
<polygon fill="black" stroke="black" points="102.683,-659.995 110.146,-652.474 99.6223,-653.699 102.683,-659.995"/>
</g>
<!-- descriptors.py&#45;&gt;descriptors.py -->
<g id="edge19" class="edge"><title>descriptors.py:f1&#45;&gt;descriptors.py:f17</title>
<path fill="none" stroke="black" d="M110.146,-1037.73C61.293,-1014.67 19.2016,-958.722 19.2016,-831.7 19.2016,-712.616 56.196,-656.004 101.074,-630.389"/>
<polygon fill="black" stroke="black" points="102.89,-633.39 110.146,-625.67 99.6593,-627.18 102.89,-633.39"/>
</g>
<!-- descriptors.py&#45;&gt;descriptors.py -->
<g id="edge20" class="edge"><title>descriptors.py:f1&#45;&gt;descriptors.py:f18</title>
<path fill="none" stroke="black" d="M110.146,-1036.58C61.293,-1012.05 19.2016,-952.777 19.2016,-818.2 19.2016,-691.772 56.3503,-631.805 101.355,-604.67"/>
<polygon fill="black" stroke="black" points="103.078,-607.717 110.146,-599.824 99.6989,-601.586 103.078,-607.717"/>
</g>
<!-- models.py&#45;&gt;models.py -->
<g id="edge26" class="edge"><title>models.py:f1&#45;&gt;models.py:f2</title>
<path fill="none" stroke="black" d="M154.798,-519.242C109.087,-520.041 64.08,-514.966 64.08,-500.2 64.08,-486.53 102.655,-481.165 144.65,-481.078"/>
<polygon fill="black" stroke="black" points="144.771,-484.579 154.798,-481.158 144.826,-477.579 144.771,-484.579"/>
</g>
<!-- models.py&#45;&gt;models.py -->
<g id="edge27" class="edge"><title>models.py:f1&#45;&gt;models.py:f3</title>
<path fill="none" stroke="black" d="M154.798,-518.694C109.087,-518.446 64.08,-510.325 64.08,-486.7 64.08,-464.828 102.655,-456.245 144.65,-454.894"/>
<polygon fill="black" stroke="black" points="144.865,-458.391 154.798,-454.706 144.735,-451.392 144.865,-458.391"/>
</g>
<!-- models.py&#45;&gt;models.py -->
<g id="edge28" class="edge"><title>models.py:f1&#45;&gt;models.py:f4</title>
<path fill="none" stroke="black" d="M154.798,-518.146C109.087,-516.851 64.08,-505.684 64.08,-473.2 64.08,-443.127 102.655,-431.324 144.65,-428.71"/>
<polygon fill="black" stroke="black" points="144.966,-432.2 154.798,-428.254 144.651,-425.207 144.966,-432.2"/>
</g>
<!-- models.py&#45;&gt;models.py -->
<g id="edge29" class="edge"><title>models.py:f1&#45;&gt;models.py:f5</title>
<path fill="none" stroke="black" d="M154.798,-517.577C109.087,-515.197 64.08,-500.872 64.08,-459.2 64.08,-420.621 102.655,-405.48 144.65,-401.557"/>
<polygon fill="black" stroke="black" points="145.077,-405.035 154.798,-400.823 144.572,-398.053 145.077,-405.035"/>
</g>
<!-- models.py&#45;&gt;models.py -->
<g id="edge30" class="edge"><title>models.py:f1&#45;&gt;models.py:f6</title>
<path fill="none" stroke="black" d="M154.798,-517.029C109.087,-513.601 64.08,-496.231 64.08,-445.7 64.08,-398.919 102.655,-380.56 144.65,-375.373"/>
<polygon fill="black" stroke="black" points="145.19,-378.836 154.798,-374.371 144.503,-371.87 145.19,-378.836"/>
</g>
<!-- models.py&#45;&gt;models.py -->
<g id="edge31" class="edge"><title>models.py:f1&#45;&gt;models.py:f7</title>
<path fill="none" stroke="black" d="M154.798,-516.48C109.087,-512.006 64.08,-491.591 64.08,-432.2 64.08,-377.217 102.655,-355.639 144.65,-349.189"/>
<polygon fill="black" stroke="black" points="145.31,-352.634 154.798,-347.92 144.441,-345.688 145.31,-352.634"/>
</g>
<!-- models.py&#45;&gt;models.py -->
<g id="edge32" class="edge"><title>models.py:f1&#45;&gt;models.py:f8</title>
<path fill="none" stroke="black" d="M154.798,-515.932C109.087,-510.411 64.08,-486.95 64.08,-418.7 64.08,-355.515 102.655,-330.718 144.65,-323.005"/>
<polygon fill="black" stroke="black" points="145.435,-326.426 154.798,-321.468 144.387,-319.505 145.435,-326.426"/>
</g>
<!-- models.py&#45;&gt;models.py -->
<g id="edge33" class="edge"><title>models.py:f1&#45;&gt;models.py:f9</title>
<path fill="none" stroke="black" d="M154.798,-515.384C109.087,-508.816 64.08,-482.309 64.08,-405.2 64.08,-333.663 102.818,-305.68 144.916,-296.764"/>
<polygon fill="black" stroke="black" points="145.561,-300.205 154.798,-295.016 144.341,-293.312 145.561,-300.205"/>
</g>
<!-- genalgo.py&#45;&gt;genalgo.py -->
<g id="edge36" class="edge"><title>genalgo.py:f1&#45;&gt;genalgo.py:f2</title>
<path fill="none" stroke="black" d="M164.745,-155.101C120.067,-156.475 74.0864,-151.625 74.0864,-136.2 74.0864,-121.95 113.329,-116.725 154.534,-117.095"/>
<polygon fill="black" stroke="black" points="154.677,-120.599 164.745,-117.299 154.817,-113.6 154.677,-120.599"/>
</g>
<!-- genalgo.py&#45;&gt;genalgo.py -->
<g id="edge37" class="edge"><title>genalgo.py:f2&#45;&gt;genalgo.py:f3</title>
<path fill="none" stroke="black" d="M164.745,-128.101C120.067,-129.475 74.0864,-124.625 74.0864,-109.2 74.0864,-94.9501 113.329,-89.7251 154.534,-90.0955"/>
<polygon fill="black" stroke="black" points="154.677,-93.599 164.745,-90.2993 154.817,-86.6004 154.677,-93.599"/>
</g>
<!-- genalgo.py&#45;&gt;genalgo.py -->
<g id="edge38" class="edge"><title>genalgo.py:f1&#45;&gt;genalgo.py:f4</title>
<path fill="none" stroke="black" d="M164.745,-154.261C120.067,-153.805 74.0864,-143.135 74.0864,-109.2 74.0864,-77.8503 113.329,-66.3552 154.534,-64.4266"/>
<polygon fill="black" stroke="black" points="154.848,-67.9192 164.745,-64.1388 154.651,-60.922 154.848,-67.9192"/>
</g>
<!-- genalgo.py&#45;&gt;genalgo.py -->
<g id="edge39" class="edge"><title>genalgo.py:f4&#45;&gt;genalgo.py:f5</title>
<path fill="none" stroke="black" d="M164.745,-74.1007C120.067,-75.4752 74.0864,-70.6248 74.0864,-55.2 74.0864,-40.9501 113.329,-35.7251 154.534,-36.0955"/>
<polygon fill="black" stroke="black" points="154.677,-39.599 164.745,-36.2993 154.817,-32.6004 154.677,-39.599"/>
</g>
</g>
</svg>
