<?xml version="1.0" encoding="UTF-8" standalone="no"?>
<!DOCTYPE svg PUBLIC "-//W3C//DTD SVG 1.1//EN"
 "http://www.w3.org/Graphics/SVG/1.1/DTD/svg11.dtd">
<!-- Generated by graphviz version 2.38.0 (20140413.2041)
 -->
<!-- Title: g Pages: 1 -->
<svg width="339pt" height="626pt"
 viewBox="0.00 0.00 339.48 626.20" xmlns="http://www.w3.org/2000/svg" xmlns:xlink="http://www.w3.org/1999/xlink">
<g id="graph0" class="graph" transform="scale(1 1) rotate(0) translate(4 622.2)">
<title>g</title>
<polygon fill="white" stroke="none" points="-4,4 -4,-622.2 335.48,-622.2 335.48,4 -4,4"/>
<!-- driver.py -->
<g id="node1" class="node"><title>driver.py</title>
<polygon fill="none" stroke="black" points="-7.10543e-15,-508.7 -7.10543e-15,-563.1 74.2016,-563.1 74.2016,-508.7 -7.10543e-15,-508.7"/>
<text text-anchor="middle" x="37.1008" y="-544.7" font-family="Times,serif" font-size="16.00">driver.py</text>
<polyline fill="none" stroke="black" points="-7.10543e-15,-535.9 74.2016,-535.9 "/>
<text text-anchor="middle" x="37.1008" y="-517.5" font-family="Times,serif" font-size="16.00">main</text>
</g>
<!-- utils.py -->
<g id="node2" class="node"><title>utils.py</title>
<polygon fill="none" stroke="black" points="111.77,-536.1 111.77,-617.7 329.911,-617.7 329.911,-536.1 111.77,-536.1"/>
<text text-anchor="middle" x="220.841" y="-599.3" font-family="Times,serif" font-size="16.00">utils.py</text>
<polyline fill="none" stroke="black" points="111.77,-590.5 329.911,-590.5 "/>
<text text-anchor="middle" x="220.841" y="-572.1" font-family="Times,serif" font-size="16.00">utils.create_notation_dataframe</text>
<polyline fill="none" stroke="black" points="111.77,-563.3 329.911,-563.3 "/>
<text text-anchor="middle" x="220.841" y="-544.9" font-family="Times,serif" font-size="16.00">utils.create_activity_dataframe</text>
</g>
<!-- driver.py&#45;&gt;utils.py -->
<g id="edge1" class="edge"><title>driver.py:f0&#45;&gt;utils.py:f1</title>
<path fill="none" stroke="black" d="M74.2016,-549.9C90.3208,-549.9 91.1713,-567.045 101.088,-574.011"/>
<polygon fill="black" stroke="black" points="100.258,-577.415 110.841,-576.9 102.247,-570.704 100.258,-577.415"/>
</g>
<!-- driver.py&#45;&gt;utils.py -->
<g id="edge2" class="edge"><title>driver.py:f0&#45;&gt;utils.py:f2</title>
<path fill="none" stroke="black" d="M74.2016,-549.9C86.5419,-549.9 91.8685,-549.9 100.811,-549.9"/>
<polygon fill="black" stroke="black" points="100.841,-553.4 110.841,-549.9 100.841,-546.4 100.841,-553.4"/>
</g>
<!-- descriptors.py -->
<g id="node3" class="node"><title>descriptors.py</title>
<polygon fill="none" stroke="black" points="110.202,-0.5 110.202,-517.3 331.48,-517.3 331.48,-0.5 110.202,-0.5"/>
<text text-anchor="middle" x="220.841" y="-498.9" font-family="Times,serif" font-size="16.00">descriptors.py</text>
<polyline fill="none" stroke="black" points="110.202,-490.1 331.48,-490.1 "/>
<text text-anchor="middle" x="220.841" y="-471.7" font-family="Times,serif" font-size="16.00">extract_all_descriptors</text>
<polyline fill="none" stroke="black" points="110.202,-462.9 331.48,-462.9 "/>
<text text-anchor="middle" x="220.841" y="-444.5" font-family="Times,serif" font-size="16.00">extract_constitution_descriptors</text>
<polyline fill="none" stroke="black" points="110.202,-435.7 331.48,-435.7 "/>
<text text-anchor="middle" x="220.841" y="-417.3" font-family="Times,serif" font-size="16.00">extract_topology_descriptors</text>
<polyline fill="none" stroke="black" points="110.202,-408.5 331.48,-408.5 "/>
<text text-anchor="middle" x="220.841" y="-390.1" font-family="Times,serif" font-size="16.00">extract_con_descriptors</text>
<polyline fill="none" stroke="black" points="110.202,-381.3 331.48,-381.3 "/>
<text text-anchor="middle" x="220.841" y="-362.9" font-family="Times,serif" font-size="16.00">extract_kappa_descriptors</text>
<polyline fill="none" stroke="black" points="110.202,-354.1 331.48,-354.1 "/>
<text text-anchor="middle" x="220.841" y="-335.7" font-family="Times,serif" font-size="16.00">extract_burden_descriptors</text>
<polyline fill="none" stroke="black" points="110.202,-326.9 331.48,-326.9 "/>
<text text-anchor="middle" x="220.841" y="-308.5" font-family="Times,serif" font-size="16.00">extract_estate_descriptors</text>
<polyline fill="none" stroke="black" points="110.202,-299.7 331.48,-299.7 "/>
<text text-anchor="middle" x="220.841" y="-281.3" font-family="Times,serif" font-size="16.00">extract_basak_descriptors</text>
<polyline fill="none" stroke="black" points="110.202,-272.5 331.48,-272.5 "/>
<text text-anchor="middle" x="220.841" y="-254.1" font-family="Times,serif" font-size="16.00">extract_moran_descriptors</text>
<polyline fill="none" stroke="black" points="110.202,-245.3 331.48,-245.3 "/>
<text text-anchor="middle" x="220.841" y="-226.9" font-family="Times,serif" font-size="16.00">extract_geary_descriptors</text>
<polyline fill="none" stroke="black" points="110.202,-218.1 331.48,-218.1 "/>
<text text-anchor="middle" x="220.841" y="-199.7" font-family="Times,serif" font-size="16.00">extract_property_descriptors</text>
<polyline fill="none" stroke="black" points="110.202,-190.9 331.48,-190.9 "/>
<text text-anchor="middle" x="220.841" y="-172.5" font-family="Times,serif" font-size="16.00">extract_charge_descriptors</text>
<polyline fill="none" stroke="black" points="110.202,-163.7 331.48,-163.7 "/>
<text text-anchor="middle" x="220.841" y="-145.3" font-family="Times,serif" font-size="16.00">extract_moe_descriptors</text>
<polyline fill="none" stroke="black" points="110.202,-136.5 331.48,-136.5 "/>
<text text-anchor="middle" x="220.841" y="-118.1" font-family="Times,serif" font-size="16.00">extract_geometric_descriptors</text>
<polyline fill="none" stroke="black" points="110.202,-109.3 331.48,-109.3 "/>
<text text-anchor="middle" x="220.841" y="-90.9" font-family="Times,serif" font-size="16.00">extract_cpsa_descriptors</text>
<polyline fill="none" stroke="black" points="110.202,-82.1 331.48,-82.1 "/>
<text text-anchor="middle" x="220.841" y="-63.7" font-family="Times,serif" font-size="16.00">extract_rdf_descriptors</text>
<polyline fill="none" stroke="black" points="110.202,-54.9 331.48,-54.9 "/>
<text text-anchor="middle" x="220.841" y="-36.5" font-family="Times,serif" font-size="16.00">extract_morse_descriptors</text>
<polyline fill="none" stroke="black" points="110.202,-27.7 331.48,-27.7 "/>
<text text-anchor="middle" x="220.841" y="-9.3" font-family="Times,serif" font-size="16.00">extract_whim_descriptors</text>
</g>
<!-- driver.py&#45;&gt;descriptors.py -->
<g id="edge3" class="edge"><title>driver.py:f0&#45;&gt;descriptors.py:f1</title>
<path fill="none" stroke="black" d="M74.2016,-549.9C106.279,-549.9 81.3314,-492.502 100.489,-479.498"/>
<polygon fill="black" stroke="black" points="101.446,-482.865 110.202,-476.9 99.6368,-476.103 101.446,-482.865"/>
</g>
<!-- descriptors.py&#45;&gt;descriptors.py -->
<g id="edge4" class="edge"><title>descriptors.py:f1&#45;&gt;descriptors.py:f2</title>
<path fill="none" stroke="black" d="M110.146,-482.358C61.293,-481.438 19.2016,-475.77 19.2016,-462.9 19.2016,-450.935 55.582,-445.194 99.9537,-443.707"/>
<polygon fill="black" stroke="black" points="100.241,-447.201 110.146,-443.442 100.058,-440.203 100.241,-447.201"/>
</g>
<!-- descriptors.py&#45;&gt;descriptors.py -->
<g id="edge5" class="edge"><title>descriptors.py:f1&#45;&gt;descriptors.py:f3</title>
<path fill="none" stroke="gray" d="M110.146,-481.205C61.293,-478.82 19.2016,-469.824 19.2016,-449.4 19.2016,-430.412 55.582,-421.302 99.9537,-418.198"/>
<polygon fill="gray" stroke="gray" points="100.37,-421.68 110.146,-417.595 99.9569,-414.692 100.37,-421.68"/>
</g>
<!-- descriptors.py&#45;&gt;descriptors.py -->
<g id="edge6" class="edge"><title>descriptors.py:f1&#45;&gt;descriptors.py:f4</title>
<path fill="none" stroke="black" d="M110.146,-480.051C61.293,-476.201 19.2016,-463.879 19.2016,-435.9 19.2016,-409.889 55.582,-397.409 99.9537,-392.689"/>
<polygon fill="black" stroke="black" points="100.51,-396.153 110.146,-391.749 99.8668,-389.182 100.51,-396.153"/>
</g>
<!-- descriptors.py&#45;&gt;descriptors.py -->
<g id="edge7" class="edge"><title>descriptors.py:f1&#45;&gt;descriptors.py:f5</title>
<path fill="none" stroke="black" d="M110.146,-478.898C61.293,-473.582 19.2016,-457.933 19.2016,-422.4 19.2016,-389.366 55.582,-373.517 99.9537,-367.18"/>
<polygon fill="black" stroke="black" points="100.659,-370.619 110.146,-365.902 99.7883,-363.673 100.659,-370.619"/>
</g>
<!-- descriptors.py&#45;&gt;descriptors.py -->
<g id="edge8" class="edge"><title>descriptors.py:f1&#45;&gt;descriptors.py:f6</title>
<path fill="none" stroke="black" d="M110.146,-477.745C61.293,-470.964 19.2016,-451.987 19.2016,-408.9 19.2016,-368.758 55.735,-349.543 100.233,-341.621"/>
<polygon fill="black" stroke="black" points="100.814,-345.072 110.146,-340.055 99.7225,-338.158 100.814,-345.072"/>
</g>
<!-- descriptors.py&#45;&gt;descriptors.py -->
<g id="edge9" class="edge"><title>descriptors.py:f1&#45;&gt;descriptors.py:f7</title>
<path fill="none" stroke="black" d="M110.146,-476.549C61.293,-468.248 19.2016,-445.821 19.2016,-394.9 19.2016,-347.46 55.735,-324.751 100.233,-315.156"/>
<polygon fill="black" stroke="black" points="100.986,-318.576 110.146,-313.251 99.6652,-311.702 100.986,-318.576"/>
</g>
<!-- descriptors.py&#45;&gt;descriptors.py -->
<g id="edge10" class="edge"><title>descriptors.py:f1&#45;&gt;descriptors.py:f8</title>
<path fill="none" stroke="black" d="M110.146,-475.395C61.293,-465.629 19.2016,-439.875 19.2016,-381.4 19.2016,-326.922 55.735,-300.845 100.233,-289.637"/>
<polygon fill="black" stroke="black" points="101.159,-293.016 110.146,-287.405 99.6214,-286.187 101.159,-293.016"/>
</g>
<!-- descriptors.py&#45;&gt;descriptors.py -->
<g id="edge11" class="edge"><title>descriptors.py:f1&#45;&gt;descriptors.py:f9</title>
<path fill="none" stroke="black" d="M110.146,-474.242C61.293,-463.011 19.2016,-433.929 19.2016,-367.9 19.2016,-306.384 55.735,-276.938 100.233,-264.118"/>
<polygon fill="black" stroke="black" points="101.339,-267.447 110.146,-261.558 99.5886,-260.67 101.339,-267.447"/>
</g>
<!-- descriptors.py&#45;&gt;descriptors.py -->
<g id="edge12" class="edge"><title>descriptors.py:f1&#45;&gt;descriptors.py:f10</title>
<path fill="none" stroke="black" d="M110.146,-473.089C61.293,-460.392 19.2016,-427.983 19.2016,-354.4 19.2016,-285.703 55.8883,-252.894 100.513,-238.508"/>
<polygon fill="black" stroke="black" points="101.518,-241.861 110.146,-235.711 99.5668,-235.138 101.518,-241.861"/>
</g>
<!-- descriptors.py&#45;&gt;descriptors.py -->
<g id="edge13" class="edge"><title>descriptors.py:f1&#45;&gt;descriptors.py:f11</title>
<path fill="none" stroke="black" d="M110.146,-471.935C61.293,-457.773 19.2016,-422.038 19.2016,-340.9 19.2016,-265.15 55.8883,-228.973 100.513,-212.979"/>
<polygon fill="black" stroke="black" points="101.707,-216.271 110.146,-209.865 99.5543,-209.61 101.707,-216.271"/>
</g>
<!-- descriptors.py&#45;&gt;descriptors.py -->
<g id="edge14" class="edge"><title>descriptors.py:f1&#45;&gt;descriptors.py:f12</title>
<path fill="none" stroke="black" d="M110.146,-470.739C61.293,-455.057 19.2016,-415.872 19.2016,-326.9 19.2016,-243.837 55.8883,-204.166 100.513,-186.504"/>
<polygon fill="black" stroke="black" points="101.907,-189.722 110.146,-183.061 99.5515,-183.131 101.907,-189.722"/>
</g>
<!-- descriptors.py&#45;&gt;descriptors.py -->
<g id="edge15" class="edge"><title>descriptors.py:f1&#45;&gt;descriptors.py:f13</title>
<path fill="none" stroke="black" d="M110.146,-469.586C61.293,-452.439 19.2016,-409.926 19.2016,-313.4 19.2016,-223.096 56.042,-180.066 100.794,-160.854"/>
<polygon fill="black" stroke="black" points="102.096,-164.102 110.146,-157.214 99.5575,-157.579 102.096,-164.102"/>
</g>
<!-- descriptors.py&#45;&gt;descriptors.py -->
<g id="edge16" class="edge"><title>descriptors.py:f1&#45;&gt;descriptors.py:f14</title>
<path fill="none" stroke="gray" d="M110.146,-468.432C61.293,-449.82 19.2016,-403.98 19.2016,-299.9 19.2016,-202.528 56.042,-156.131 100.794,-135.314"/>
<polygon fill="gray" stroke="gray" points="102.294,-138.48 110.146,-131.368 99.572,-132.031 102.294,-138.48"/>
</g>
<!-- descriptors.py&#45;&gt;descriptors.py -->
<g id="edge17" class="edge"><title>descriptors.py:f1&#45;&gt;descriptors.py:f15</title>
<path fill="none" stroke="gray" d="M110.146,-467.279C61.293,-447.201 19.2016,-398.034 19.2016,-286.4 19.2016,-181.961 56.042,-132.196 100.794,-109.775"/>
<polygon fill="gray" stroke="gray" points="102.492,-112.847 110.146,-105.521 99.5943,-106.475 102.492,-112.847"/>
</g>
<!-- descriptors.py&#45;&gt;descriptors.py -->
<g id="edge18" class="edge"><title>descriptors.py:f1&#45;&gt;descriptors.py:f16</title>
<path fill="none" stroke="gray" d="M110.146,-466.126C61.293,-444.583 19.2016,-392.088 19.2016,-272.9 19.2016,-161.161 56.196,-108.04 101.074,-84.0851"/>
<polygon fill="gray" stroke="gray" points="102.683,-87.1946 110.146,-79.6743 99.6223,-80.8992 102.683,-87.1946"/>
</g>
<!-- descriptors.py&#45;&gt;descriptors.py -->
<g id="edge19" class="edge"><title>descriptors.py:f1&#45;&gt;descriptors.py:f17</title>
<path fill="none" stroke="gray" d="M110.146,-464.93C61.293,-441.867 19.2016,-385.922 19.2016,-258.9 19.2016,-139.816 56.196,-83.2038 101.074,-57.5893"/>
<polygon fill="gray" stroke="gray" points="102.89,-60.5901 110.146,-52.8704 99.6593,-54.38 102.89,-60.5901"/>
</g>
<!-- descriptors.py&#45;&gt;descriptors.py -->
<g id="edge20" class="edge"><title>descriptors.py:f1&#45;&gt;descriptors.py:f18</title>
<path fill="none" stroke="gray" d="M110.146,-463.776C61.293,-439.248 19.2016,-379.977 19.2016,-245.4 19.2016,-118.972 56.3503,-59.0053 101.355,-31.8701"/>
<polygon fill="gray" stroke="gray" points="103.078,-34.9166 110.146,-27.0237 99.6989,-28.7863 103.078,-34.9166"/>
</g>
</g>
</svg>
